<?xml version="1.0" encoding="UTF-8"?>
<svg width="26px" height="26px" viewBox="0 0 26 26" version="1.1" xmlns="http://www.w3.org/2000/svg" xmlns:xlink="http://www.w3.org/1999/xlink">
    <!-- Generator: Sketch 51.3 (57544) - http://www.bohemiancoding.com/sketch -->
    <title>Icon/float-filter-on</title>
    <desc>Created with Sketch.</desc>
    <defs></defs>
    <g id="Icon/float-filter-on" stroke="none" stroke-width="1" fill="none" fill-rule="evenodd">
        <path d="M19.9499122,6.38776334 C20.0493387,6.62638694 19.9996255,6.90478113 19.8107151,7.08374883 L14.9089888,11.9854752 L14.9089888,19.3629214 C14.9089888,19.6214303 14.7499064,19.8501112 14.5212254,19.9495377 C14.4416842,19.9793657 14.3522004,19.999251 14.2726592,19.999251 C14.1036341,19.999251 13.9445517,19.9395951 13.8252399,19.8103406 L11.2799216,17.2650223 C11.1606098,17.1457105 11.0910112,16.9866281 11.0910112,16.817603 L11.0910112,11.9854752 L6.18928487,7.08374883 C6.00037452,6.90478113 5.95066127,6.62638694 6.05008777,6.38776334 C6.14951427,6.1590824 6.37819522,6 6.63670411,6 L19.3632959,6 C19.6218048,6 19.8504857,6.1590824 19.9499122,6.38776334 Z" id="Icon" fill="#007D7D"></path>
    </g>
</svg>