<?xml version="1.0" encoding="UTF-8"?>
<svg width="26px" height="26px" viewBox="0 0 26 26" version="1.1" xmlns="http://www.w3.org/2000/svg" xmlns:xlink="http://www.w3.org/1999/xlink">
    <!-- Generator: Sketch 51.2 (57519) - http://www.bohemiancoding.com/sketch -->
    <title>Icon/float-info</title>
    <desc>Created with Sketch.</desc>
    <defs></defs>
    <g id="Icon/float-info" stroke="none" stroke-width="1" fill="none" fill-rule="evenodd">
        <path d="M13,3.41935484 C18.2614153,3.41935484 22.5806452,7.68074597 22.5806452,13 C22.5806452,18.2911331 18.2955242,22.5806452 13,22.5806452 C7.71095161,22.5806452 3.41935484,18.2976532 3.41935484,13 C3.41935484,7.71277016 7.70412097,3.41935484 13,3.41935484 Z M13,2 C6.92529435,2 2,6.92706855 2,13 C2,19.0764798 6.92529435,24 13,24 C19.0747056,24 24,19.0764798 24,13 C24,6.92706855 19.0747056,2 13,2 Z M11.4032258,17.2580645 L11.9354839,17.2580645 L11.9354839,11.9354839 L11.4032258,11.9354839 C11.1092863,11.9354839 10.8709677,11.6971653 10.8709677,11.4032258 L10.8709677,11.0483871 C10.8709677,10.7544476 11.1092863,10.516129 11.4032258,10.516129 L13.5322581,10.516129 C13.8261976,10.516129 14.0645161,10.7544476 14.0645161,11.0483871 L14.0645161,17.2580645 L14.5967742,17.2580645 C14.8907137,17.2580645 15.1290323,17.4963831 15.1290323,17.7903226 L15.1290323,18.1451613 C15.1290323,18.4391008 14.8907137,18.6774194 14.5967742,18.6774194 L11.4032258,18.6774194 C11.1092863,18.6774194 10.8709677,18.4391008 10.8709677,18.1451613 L10.8709677,17.7903226 C10.8709677,17.4963831 11.1092863,17.2580645 11.4032258,17.2580645 Z M13,6.61290323 C12.2161169,6.61290323 11.5806452,7.248375 11.5806452,8.03225806 C11.5806452,8.81614113 12.2161169,9.4516129 13,9.4516129 C13.7838831,9.4516129 14.4193548,8.81614113 14.4193548,8.03225806 C14.4193548,7.248375 13.7838831,6.61290323 13,6.61290323 Z" id="Shape" fill="#487F33" fill-rule="nonzero"></path>
    </g>
</svg>