<?xml version="1.0" encoding="UTF-8"?>
<svg width="16px" height="26px" viewBox="0 0 16 26" version="1.1" xmlns="http://www.w3.org/2000/svg" xmlns:xlink="http://www.w3.org/1999/xlink">
    <!-- Generator: Sketch 51.3 (57544) - http://www.bohemiancoding.com/sketch -->
    <title>Icon/float-sort-ascending</title>
    <desc>Created with Sketch.</desc>
    <defs></defs>
    <g id="Icon/float-sort-ascending" stroke="none" stroke-width="1" fill="none" fill-rule="evenodd">
        <path d="M14,13.696561 C14,13.971679 13.8921694,14.2387053 13.7150193,14.4248146 L8.70089859,19.7006069 C8.51604621,19.8867161 8.2618742,20 8,20 C7.7381258,20 7.48395379,19.8867161 7.30680359,19.7006069 L2.29268293,14.4248146 C2.10783055,14.2387053 2,13.971679 2,13.696561 C2,13.421443 2.10783055,13.1544167 2.29268293,12.9602158 L2.86264442,12.3533378 C3.04749679,12.1672286 3.30166881,12.0539447 3.563543,12.0539447 C3.8254172,12.0539447 4.07958922,12.1672286 4.25673941,12.3533378 L6.521181,14.7322994 L6.521181,9.03573837 C6.521181,8.46931895 6.96790757,8 7.50706033,8 L8.49293967,8 C9.03209243,8 9.478819,8.46931895 9.478819,9.03573837 L9.478819,14.7322994 L11.7432606,12.3533378 C11.9204108,12.1672286 12.1745828,12.0539447 12.436457,12.0539447 C12.6983312,12.0539447 12.9525032,12.1672286 13.1373556,12.3533378 L13.7150193,12.9602158 C13.8921694,13.1544167 14,13.421443 14,13.696561 Z" id="Icon" fill="#007D7D" transform="translate(8.000000, 14.000000) scale(1, -1) translate(-8.000000, -14.000000) "></path>
    </g>
</svg>