<?xml version="1.0" encoding="UTF-8"?>
<svg width="27px" height="27px" viewBox="0 0 27 27" version="1.1" xmlns="http://www.w3.org/2000/svg" xmlns:xlink="http://www.w3.org/1999/xlink">
    <!-- Generator: Sketch 51.3 (57544) - http://www.bohemiancoding.com/sketch -->
    <title>Icon/left-nav-Bookmarks</title>
    <desc>Created with Sketch.</desc>
    <defs></defs>
    <g id="Icon/left-nav-Bookmarks" stroke="none" stroke-width="1" fill="none" fill-rule="evenodd" fill-opacity="0.8">
        <path d="M18.0833333,4 L14.4166667,4 C13.90975,4 13.5,4.40975 13.5,4.91666667 L13.5210833,5.12016667 C14.53125,5.12016667 15.3544167,5.94241667 15.3544167,6.9535 L15.3544167,17.3659167 L16.25,16.2833333 L19,19.5833333 L19,4.91666667 C19,4.40975 18.59025,4 18.0833333,4 L18.0833333,4 Z M12.6044167,6.75 L8.91666667,6.75 C8.40975,6.75 8,7.15975 8,7.66666667 L8,22.3333333 L10.75,19.0333333 L13.5,22.3333333 L13.5,7.66666667 C13.5,7.15975 13.1113333,6.75 12.6044167,6.75 L12.6044167,6.75 Z" id="Shape" fill="#FFFFFF"></path>
    </g>
</svg>