<?xml version="1.0" encoding="UTF-8"?>
<svg width="27px" height="27px" viewBox="0 0 27 27" version="1.1" xmlns="http://www.w3.org/2000/svg" xmlns:xlink="http://www.w3.org/1999/xlink">
    <!-- Generator: Sketch 51.3 (57544) - http://www.bohemiancoding.com/sketch -->
    <title>Icon/left-nav-Drug</title>
    <desc>Created with Sketch.</desc>
    <defs></defs>
    <g id="Icon/left-nav-Drug" stroke="none" stroke-width="1" fill="none" fill-rule="evenodd" fill-opacity="0.8">
        <path d="M19.097093,10 L8.90321825,10 C6.75102779,10 5,11.7943389 5,13.9998937 C5,16.2055194 6.75102779,18 8.90321825,18 L19.097093,18 C21.2489722,18 23,16.2055194 23,13.9998937 C23,11.7943389 21.2491451,10 19.097093,10 Z M9.9355006,11.5936921 C7.2179962,11.5936921 7.03147165,13.0753311 7.03005387,13.0904983 C7.00868342,13.2938738 6.84100497,13.4449081 6.64548961,13.4449081 C6.63189967,13.4449081 6.61789477,13.4442702 6.60409735,13.4424983 C6.39122283,13.4193577 6.23741096,13.223495 6.26019918,13.0059092 C6.26960494,12.9157209 6.52999239,10.8002481 9.9355006,10.8002481 C10.149205,10.8002481 10.3227275,10.9778605 10.3227275,11.1970764 C10.3227275,11.4162924 10.1494125,11.5936921 9.9355006,11.5936921 Z M19.097093,17.0081772 L15.8067708,17.0081772 L15.8067708,10.9918228 L19.097093,10.9918228 C20.7157139,10.9918228 22.0324168,12.3413865 22.0324168,13.9998937 C22.0323823,15.6586135 20.7156793,17.0081772 19.097093,17.0081772 Z" id="Shape" fill="#FFFFFF" transform="translate(14.000000, 14.000000) rotate(-45.000000) translate(-14.000000, -14.000000) "></path>
    </g>
</svg>