<?xml version="1.0" encoding="UTF-8"?>
<svg width="27px" height="27px" viewBox="0 0 27 27" version="1.1" xmlns="http://www.w3.org/2000/svg" xmlns:xlink="http://www.w3.org/1999/xlink">
    <!-- Generator: Sketch 51.3 (57544) - http://www.bohemiancoding.com/sketch -->
    <title>Icon/left-nav-Learning</title>
    <desc>Created with Sketch.</desc>
    <defs></defs>
    <g id="Icon/left-nav-Learning" stroke="none" stroke-width="1" fill="none" fill-rule="evenodd" fill-opacity="0.8">
        <path d="M13.8461508,9.1875 C13.8461508,9.42913672 13.6488902,9.625 13.4055911,9.625 C12.4338815,9.625 11.6433522,10.4100391 11.6433522,11.375 C11.6433522,11.6166367 11.4460916,11.8125 11.2027925,11.8125 C10.9594934,11.8125 10.7622328,11.6166367 10.7622328,11.375 C10.7622328,9.92755859 11.9480268,8.75 13.4055911,8.75 C13.6488902,8.75 13.8461508,8.94586328 13.8461508,9.1875 Z M18.6923077,11.8125 C18.6923077,14.594207 17.2688317,14.3155742 16.1999512,17.0809297 C16.1665736,17.1670034 16.1150947,17.2450185 16.0489494,17.3097695 L16.0489494,19.6875 C16.0460393,19.8325266 15.9952898,19.9726689 15.9041429,20.0860078 L15.366247,20.7537148 C15.2408354,20.9093852 15.0509662,21.0000034 14.8502139,21 L12.8420877,21 C12.6413354,21.0000034 12.4514662,20.9093852 12.3260546,20.7537148 L11.7881587,20.0860078 C11.6969989,19.9726761 11.6462478,19.8325292 11.6438478,19.6875 L11.6433522,17.3086758 C11.5765783,17.2429761 11.5245876,17.163966 11.4908084,17.0768555 C10.4175774,14.3041719 8.9879611,14.5952187 9.00007649,11.7770352 C9.0114209,9.13308594 11.1836832,7 13.8461508,7 C16.5224134,7 18.6923077,9.15476953 18.6923077,11.8125 Z M15.1678299,19.25 L12.5244716,19.25 L12.5244716,19.5993164 L12.9479597,20.125 L14.7443419,20.125 L15.1678299,19.5993164 L15.1678299,19.25 Z M15.1678299,17.5 L12.5244716,17.5 L12.5244716,18.375 L15.1678299,18.375 L15.1678299,17.5 Z M17.8111883,11.8125 C17.8111883,9.63621094 16.0372745,7.875 13.8461508,7.875 C11.6546415,7.875 9.88111332,9.63656641 9.88111332,11.8125 C9.88111332,14.2043945 11.0966176,13.7513906 12.2586764,16.625 L15.4336251,16.625 C16.5935638,13.756668 17.8111883,14.1974766 17.8111883,11.8125 Z" id="Shape" fill="#FFFFFF"></path>
    </g>
</svg>