<?xml version="1.0" encoding="UTF-8"?>
<svg width="27px" height="27px" viewBox="0 0 27 27" version="1.1" xmlns="http://www.w3.org/2000/svg" xmlns:xlink="http://www.w3.org/1999/xlink">
    <!-- Generator: Sketch 51.3 (57544) - http://www.bohemiancoding.com/sketch -->
    <title>Icon/left-nav-Home</title>
    <desc>Created with Sketch.</desc>
    <defs></defs>
    <g id="Icon/left-nav-Home" stroke="none" stroke-width="1" fill="none" fill-rule="evenodd" fill-opacity="0.8">
        <path d="M20.8191516,14.589707 L19.4234202,14.589707 L19.4234202,19.5983125 C19.4234202,19.9697841 19.2614752,20.4330801 18.5886526,20.4330801 L15.2495822,20.4330801 L15.2495822,15.4244746 L11.9105118,15.4244746 L11.9105118,20.4330801 L8.57144143,20.4330801 C7.89861875,20.4330801 7.73667384,19.9697841 7.73667384,19.5983125 L7.73667384,14.589707 L6.34094242,14.589707 C5.8417514,14.589707 5.94860165,14.3192423 6.29085636,13.9653008 L12.9890315,7.26044749 C13.1518112,7.09182444 13.3655117,7.00834768 13.580047,7 C13.7945823,7.00834768 14.0082828,7.09098967 14.1710625,7.26044749 L20.8684029,13.964466 C21.2114923,14.3192423 21.3183426,14.589707 20.8191516,14.589707 Z" id="Shape" fill="#FFFFFF"></path>
    </g>
</svg>