<?xml version="1.0" encoding="UTF-8"?>
<svg width="27px" height="27px" viewBox="0 0 27 27" version="1.1" xmlns="http://www.w3.org/2000/svg" xmlns:xlink="http://www.w3.org/1999/xlink">
    <!-- Generator: Sketch 51.3 (57544) - http://www.bohemiancoding.com/sketch -->
    <title>Icon/left-nav-Provider</title>
    <desc>Created with Sketch.</desc>
    <defs></defs>
    <g id="Icon/left-nav-Provider" stroke="none" stroke-width="1" fill="none" fill-rule="evenodd" fill-opacity="0.8">
        <path d="M19.4396562,9.01540625 C18.0764687,9.04753125 16.9809062,10.1874687 17.00025,11.550875 C17.0171875,12.7442187 17.8702812,13.73525 19,13.9645625 L19,17.2646875 C19,19.3243437 17.2055937,21 15,21 C12.794375,21 11,19.3243437 11,17.2647188 L11,16.9867812 C13.2468437,16.73725 15,14.8270312 15,12.5147188 L15,6.8078125 C14.9999802,6.63573757 14.8828708,6.48574989 14.7159375,6.444 L12.9850625,6.01128125 C12.784125,5.9610625 12.5805312,6.08321875 12.5303125,6.284125 L12.4696875,6.52665625 C12.4194687,6.72759375 12.541625,6.9311875 12.7425312,6.98140625 L14,7.29578125 L14,12.4761875 C14,14.4075312 12.4517812,16.0035312 10.5204687,16.014625 C8.58121875,16.0257812 7,14.4514375 7,12.5147188 L7,7.29578125 L8.25746875,6.9814375 C8.45840625,6.93121875 8.5805625,6.727625 8.5303125,6.5266875 L8.4696875,6.28415625 C8.41946875,6.08321875 8.21584375,5.9610625 8.0149375,6.0113125 L6.2840625,6.444 C6.1171292,6.48574989 6.00001976,6.63573757 6,6.8078125 L6,12.5147188 C6,14.8270312 7.75315625,16.73725 10,16.9867812 L10,17.2647188 C10,19.87575 12.243,22 15,22 C17.7570312,22 20,19.87575 20,17.2647188 L20,13.9645937 C21.1410937,13.7329375 22,12.7241563 22,11.5146875 C22,10.1139375 20.8479687,8.98225 19.4396562,9.01540625 Z M19.5,13.0147188 C18.6729062,13.0147188 18,12.3418125 18,11.5147188 C18,10.687625 18.6729062,10.0147188 19.5,10.0147188 C20.3270937,10.0147188 21,10.687625 21,11.5147188 C21,12.3418125 20.3270937,13.0147188 19.5,13.0147188 Z M20.2352812,11.5147188 C20.2352812,11.9208125 19.9060937,12.25 19.5,12.25 C19.0939062,12.25 18.7647188,11.9208125 18.7647188,11.5147188 C18.7647188,11.108625 19.0939062,10.7794375 19.5,10.7794375 C19.9060937,10.7794375 20.2352812,11.108625 20.2352812,11.5147188 Z" id="Shape" fill="#FFFFFF"></path>
    </g>
</svg>