<?xml version="1.0" encoding="UTF-8"?>
<svg width="27px" height="27px" viewBox="0 0 27 27" version="1.1" xmlns="http://www.w3.org/2000/svg" xmlns:xlink="http://www.w3.org/1999/xlink">
    <!-- Generator: Sketch 51.3 (57544) - http://www.bohemiancoding.com/sketch -->
    <title>Icon/left-nav-Settings</title>
    <desc>Created with Sketch.</desc>
    <defs></defs>
    <g id="Icon/left-nav-Settings" stroke="none" stroke-width="1" fill="none" fill-rule="evenodd" fill-opacity="0.8">
        <path d="M20.104393,11.5103532 L20.0342868,11.4009877 C19.9193128,11.4094004 19.807143,11.4094004 19.6921689,11.4009877 L19.6220628,11.5131575 C19.4594166,11.771148 19.1425369,11.8889263 18.8508954,11.7963863 C18.4639095,11.6758037 18.205919,11.5496127 17.8890393,11.2888179 C17.6366572,11.0813037 17.5749638,10.7195561 17.73761,10.4363273 L17.8077162,10.3157448 C17.7432185,10.2204005 17.6871336,10.1222519 17.6366572,10.0184948 L17.3814709,10.0184948 C17.0561785,10.0184948 16.7813624,9.7885467 16.719669,9.46886275 C16.6467587,9.08468117 16.6439544,8.79023542 16.7224733,8.38922836 C16.7813624,8.07234866 17.061787,7.84240055 17.3842751,7.84240055 L17.6366572,7.84240055 C17.6871336,7.73864348 17.7432185,7.6404949 17.8077162,7.54515056 L17.7348058,7.41895953 C17.5721596,7.13853501 17.633853,6.78239588 17.8806265,6.56927324 C18.1778765,6.31408693 18.4330628,6.16826618 18.8200487,6.03646666 C19.1229072,5.93270959 19.4566123,6.05609637 19.6192586,6.33371665 L19.6921689,6.45710343 C19.807143,6.4486907 19.9193128,6.4486907 20.0342868,6.45710343 L20.1071972,6.33371665 C20.2698434,6.05609637 20.6035486,5.93270959 20.9092113,6.0392709 C21.2821759,6.16546194 21.534558,6.30847844 21.8486335,6.57488173 C22.095407,6.78520012 22.1542962,7.14133926 21.99165,7.42176378 L21.9187396,7.54515056 C21.9832372,7.6404949 22.0393221,7.73864348 22.0897986,7.84240055 L22.2328151,7.84240055 C22.5581075,7.84240055 22.8329235,8.07234866 22.8946169,8.39203261 C22.9675273,8.7762142 22.9703315,9.07065994 22.8918127,9.471667 C22.8329235,9.7885467 22.552499,10.0184948 22.2300108,10.0184948 L22.0897986,10.0184948 C22.0393221,10.1222519 21.9832372,10.2204005 21.9187396,10.3157448 L21.9888457,10.4363273 C22.1542962,10.7223603 22.0869943,11.084108 21.8346122,11.2916221 C21.534558,11.5383957 21.2765675,11.667391 20.8811689,11.793582 C20.5867231,11.8861221 20.2670392,11.771148 20.104393,11.5103532 Z M20.4465109,10.5428887 L20.7437609,11.0560655 C20.9316453,10.9775467 21.1055085,10.8765938 21.2681547,10.753207 L20.9709047,10.2400302 L21.1503764,10.0297118 C21.2849802,9.86986981 21.3915415,9.69039812 21.4588434,9.49410096 L21.5513835,9.23330616 L22.1430792,9.23330616 C22.1683174,9.03420475 22.1683174,8.82949485 22.1430792,8.63039345 L21.5513835,8.63039345 L21.4588434,8.36959865 C21.3887373,8.17330148 21.2849802,7.99382979 21.1503764,7.83398782 L20.9709047,7.62366943 L21.2653505,7.10768832 C21.1055085,6.98430153 20.9288411,6.8833487 20.7409566,6.80482984 L20.4437066,7.3180067 L20.1716949,7.26753029 C19.966985,7.22827086 19.7566666,7.22827086 19.5519567,7.26753029 L19.2799449,7.3180067 L18.9826949,6.80482984 C18.7976147,6.88054446 18.6209473,6.98430153 18.4611053,7.10768832 L18.7583553,7.62086518 L18.5788836,7.83118357 C18.4442798,7.99102555 18.3377185,8.17049724 18.2704166,8.3667944 L18.1778765,8.6275892 L17.5861808,8.6275892 C17.5609426,8.82669061 17.5609426,9.03140051 17.5861808,9.23050191 L18.1778765,9.23050191 L18.2704166,9.49129672 C18.3405228,9.68759388 18.4442798,9.86706557 18.5788836,10.0269075 L18.7583553,10.2372259 L18.4611053,10.753207 C18.6209473,10.8765938 18.7976147,10.9775467 18.9854991,11.0560655 L19.2827491,10.5428887 L19.5547609,10.5933651 C19.7594708,10.6326245 19.9697892,10.6326245 20.1744991,10.5933651 L20.4465109,10.5428887 Z M9.07529669,18.7453058 L9.07529669,17.8591643 C8.71354906,17.7049308 8.37143115,17.5058294 8.05455145,17.2674686 L7.28338402,17.7133436 C7.008568,17.8703813 6.66364584,17.8171006 6.45052321,17.5843483 C5.77189587,16.8468318 5.37088881,16.1962469 5.03157515,15.1138083 C4.93623081,14.8137541 5.06242184,14.4884616 5.33443363,14.3286196 L6.09999256,13.8827447 C6.05232039,13.4901503 6.05232039,13.0947518 6.09999256,12.7021574 L5.33443363,12.2590867 C5.06242184,12.102049 4.93623081,11.7739523 5.03157515,11.4738981 C5.37088881,10.3970679 5.76628738,9.74648303 6.45052321,9.00335805 C6.66364584,8.77060571 7.01137224,8.71732505 7.28338402,8.87436278 L8.0517472,9.32023776 C8.36862691,9.08187692 8.71074482,8.88557976 9.07249245,8.72854203 L9.07249245,7.84240055 C9.07249245,7.52552085 9.29122357,7.25350906 9.59969054,7.18620718 C10.5727636,6.96747606 11.3383225,6.94223785 12.4516079,7.18620718 C12.7600749,7.25350906 12.9816102,7.52832509 12.9816102,7.84240055 L12.9816102,8.72854203 C13.3433578,8.88277551 13.6854758,9.08187692 14.0023555,9.31743351 L14.7707186,8.87436278 C15.0455347,8.71732505 15.3932611,8.77060571 15.6063837,9.00335805 C16.3607257,9.83341463 16.7701455,10.5709311 17.0673954,11.485115 C17.1627398,11.7795608 17.0449615,12.0992447 16.7813624,12.261891 L16.0803011,12.7049617 C16.1279733,13.097556 16.1279733,13.4929546 16.0803011,13.8855489 L16.868294,14.3762918 C17.1094591,14.5277211 17.2328459,14.8137541 17.1711525,15.0913743 C16.9776596,15.9691031 16.2457516,16.9029167 15.6035795,17.592761 C15.3904568,17.8227091 15.0455347,17.8731855 14.7735229,17.7161478 L14.0023555,17.2702728 C13.6854758,17.5086337 13.3433578,17.7049308 12.9816102,17.8619686 L12.9816102,18.74811 C12.9816102,19.0621855 12.7628791,19.3370015 12.4544121,19.4043034 C11.4028202,19.6370558 10.634457,19.6342515 9.59688629,19.4043034 C9.29402781,19.3341973 9.07529669,19.0593813 9.07529669,18.7453058 Z M9.97265515,18.5714426 C10.668108,18.7116549 11.388799,18.7116549 12.0842518,18.5714426 L12.0842518,17.2338176 L12.384306,17.1272563 C12.8554192,16.9618059 13.2900772,16.7094238 13.6714545,16.3841314 L13.9126196,16.1766172 L15.0735771,16.8468318 C15.5446903,16.311221 16.0270205,15.6886786 16.2541643,15.018464 L15.0932068,14.3482494 L15.152096,14.0369781 C15.2418318,13.543431 15.2418318,13.0414711 15.152096,12.547924 L15.0932068,12.2366527 L16.2541643,11.5664381 C16.0270205,10.8962235 15.5446903,10.2708769 15.0735771,9.73807029 L13.9126196,10.4082849 L13.6714545,10.2007707 C13.2900772,9.87267406 12.8582234,9.62309624 12.384306,9.45764577 L12.0842518,9.35108446 L12.0842518,8.01626375 C11.388799,7.87605149 10.668108,7.87605149 9.97265515,8.01626375 L9.97265515,9.3538887 L9.67260091,9.46045002 C9.20148772,9.62590048 8.76682972,9.87828255 8.38545238,10.203575 L8.14428729,10.4110891 L6.98332979,9.74087454 C6.51379387,10.2746413 6.15449601,10.8960265 5.92612936,11.5692424 L7.08708686,12.239457 L7.02819771,12.5507282 C6.93846187,13.0442754 6.93846187,13.5462352 7.02819771,14.0397824 L7.08708686,14.3510536 L5.92612936,15.0212682 C6.15327322,15.6914828 6.5122166,16.3168295 6.98332979,16.8496361 L8.14428729,16.1794215 L8.38545238,16.3869356 C8.76682972,16.7150323 9.19868348,16.9646101 9.67260091,17.1300606 L9.97265515,17.2366219 L9.97265515,18.5714426 Z M11.0494853,15.6185724 C9.76794525,15.6185724 8.72476604,14.5753932 8.72476604,13.2938532 C8.72476604,12.0123131 9.76794525,10.9691339 11.0494853,10.9691339 C12.3310253,10.9691339 13.3742045,12.0123131 13.3742045,13.2938532 C13.3742045,14.5753932 12.3310253,15.6185724 11.0494853,15.6185724 Z M11.0494853,11.8664924 C10.2642966,11.8664924 9.6221245,12.5058603 9.6221245,13.2938532 C9.6221245,14.0818461 10.2614924,14.721214 11.0494853,14.721214 C11.8346739,14.721214 12.4768461,14.0818461 12.4768461,13.2938532 C12.4768461,12.5058603 11.8374782,11.8664924 11.0494853,11.8664924 Z M20.104393,20.0464756 L20.0342868,19.93711 C19.9193128,19.9455227 19.807143,19.9455227 19.6921689,19.93711 L19.6220628,20.0492798 C19.4594166,20.3072704 19.1425369,20.4250487 18.8508954,20.3325086 C18.4639095,20.211926 18.205919,20.085735 17.8890393,19.8249402 C17.6366572,19.617426 17.5749638,19.2556784 17.73761,18.9724497 L17.8077162,18.8518671 C17.7432185,18.7565228 17.6871336,18.6583742 17.6366572,18.5546171 L17.3814709,18.5546171 C17.0561785,18.5546171 16.7813624,18.324669 16.719669,18.0049851 C16.6467587,17.6208035 16.6439544,17.3263577 16.7224733,16.9253507 C16.7813624,16.608471 17.061787,16.3785229 17.3842751,16.3785229 L17.6366572,16.3785229 C17.6871336,16.2747658 17.7432185,16.1766172 17.8077162,16.0812729 L17.7348058,15.9550818 C17.5721596,15.6746573 17.633853,15.3185182 17.8806265,15.1053956 C18.1778765,14.8502092 18.4330628,14.7043885 18.8200487,14.572589 C19.1229072,14.4688319 19.4566123,14.5922187 19.6192586,14.869839 L19.6921689,14.9932258 C19.807143,14.984813 19.9193128,14.984813 20.0342868,14.9932258 L20.1071972,14.869839 C20.2698434,14.5922187 20.6035486,14.4688319 20.9092113,14.5753932 C21.2821759,14.7015843 21.534558,14.8446008 21.8486335,15.111004 C22.095407,15.3213224 22.1542962,15.6774616 21.99165,15.9578861 L21.9187396,16.0812729 C21.9832372,16.1766172 22.0393221,16.2747658 22.0897986,16.3785229 L22.2328151,16.3785229 C22.5581075,16.3785229 22.8329235,16.608471 22.8946169,16.9281549 C22.9675273,17.3123365 22.9703315,17.6067823 22.8918127,18.0077893 C22.8329235,18.324669 22.552499,18.5546171 22.2300108,18.5546171 L22.0897986,18.5546171 C22.0393221,18.6583742 21.9832372,18.7565228 21.9187396,18.8518671 L21.9888457,18.9724497 C22.1542962,19.2584827 22.0869943,19.6202303 21.8346122,19.8277444 C21.534558,20.074518 21.2765675,20.2035133 20.8811689,20.3297043 C20.5867231,20.4194402 20.2670392,20.3044661 20.104393,20.0464756 Z M20.4465109,19.0762067 L20.7437609,19.5893836 C20.9316453,19.5108647 21.1055085,19.4099119 21.2681547,19.2865251 L20.9709047,18.7733482 L21.1503764,18.5630299 C21.2849802,18.4031879 21.3915415,18.2237162 21.4588434,18.027419 L21.5513835,17.7666242 L22.1430792,17.7666242 C22.1683174,17.5675228 22.1683174,17.3628129 22.1430792,17.1637115 L21.5513835,17.1637115 L21.4588434,16.9029167 C21.3887373,16.7066196 21.2849802,16.5271479 21.1503764,16.3673059 L20.9709047,16.1569875 L21.2681547,15.6438106 C21.1083127,15.5204238 20.9316453,15.419471 20.7437609,15.3409522 L20.4465109,15.854129 L20.1744991,15.8036526 C19.9697892,15.7643932 19.7594708,15.7643932 19.5547609,15.8036526 L19.2827491,15.854129 L18.9854991,15.3409522 C18.7976147,15.419471 18.6237515,15.5204238 18.4611053,15.6438106 L18.7583553,16.1569875 L18.5788836,16.3673059 C18.4442798,16.5271479 18.3377185,16.7066196 18.2704166,16.9029167 L18.1778765,17.1637115 L17.5861808,17.1637115 C17.5609426,17.3628129 17.5609426,17.5675228 17.5861808,17.7666242 L18.1778765,17.7666242 L18.2704166,18.027419 C18.3405228,18.2237162 18.4442798,18.4031879 18.5788836,18.5630299 L18.7583553,18.7733482 L18.4611053,19.2865251 C18.6209473,19.4099119 18.7976147,19.5108647 18.9854991,19.5893836 L19.2827491,19.0762067 L19.5547609,19.1266831 C19.7594708,19.1659426 19.9697892,19.1659426 20.1744991,19.1266831 L20.4465109,19.0762067 Z M20.7045014,17.444136 C20.7045014,16.9477846 20.3034944,16.5467776 19.807143,16.5467776 C19.3107916,16.5467776 18.9097845,16.9477846 18.9097845,17.444136 C18.9097845,17.9404874 19.3107916,18.3414945 19.807143,18.3414945 C20.3034944,18.3414945 20.7045014,17.9404874 20.7045014,17.444136 Z M20.7045014,8.91081796 C20.7045014,8.41446657 20.3034944,8.01345951 19.807143,8.01345951 C19.3107916,8.01345951 18.9097845,8.41446657 18.9097845,8.91081796 C18.9097845,9.40716936 19.3107916,9.80817642 19.807143,9.80817642 C20.3034944,9.80817642 20.7045014,9.40436512 20.7045014,8.91081796 Z" id="Shape" fill="#FFFFFF"></path>
    </g>
</svg>