<?xml version="1.0" encoding="UTF-8"?>
<svg width="27px" height="27px" viewBox="0 0 27 27" version="1.1" xmlns="http://www.w3.org/2000/svg" xmlns:xlink="http://www.w3.org/1999/xlink">
    <!-- Generator: Sketch 51.3 (57544) - http://www.bohemiancoding.com/sketch -->
    <title>Icon/left-nav-Resources</title>
    <desc>Created with Sketch.</desc>
    <defs></defs>
    <g id="Icon/left-nav-Resources" stroke="none" stroke-width="1" fill="none" fill-rule="evenodd" fill-opacity="0.8">
        <path d="M14.7511963,15.8124974 L14.7511963,17.6874996 C14.7511963,17.8593748 14.6105711,18 14.4386959,18 L12.5636936,18 C12.3918184,18 12.2511933,17.8593748 12.2511933,17.6874996 L12.2511933,15.8124974 C12.2511933,15.6406222 12.3918184,15.499997 12.5636936,15.499997 L14.4386959,15.499997 C14.6105711,15.499997 14.7511963,15.6406222 14.7511963,15.8124974 Z M17.2199492,11.1249918 C17.2199492,12.6093686 16.2121355,13.1796818 15.4699471,13.5937447 C15.0090091,13.8593701 14.7199462,14.3984332 14.7199462,14.624996 C14.7199462,14.7968712 14.5871336,14.9999964 14.4074458,14.9999964 L12.5324436,14.9999964 C12.3605684,14.9999964 12.2511933,14.7343711 12.2511933,14.5624959 L12.2511933,14.210933 C12.2511933,13.2656194 13.1886944,12.4531184 13.8761952,12.140618 C14.4777584,11.8671802 14.7277587,11.6093674 14.7277587,11.1093668 C14.7277587,10.6718663 14.1574455,10.2812408 13.5246323,10.2812408 C13.1730694,10.2812408 12.8527565,10.3906159 12.6808813,10.5078036 C12.4933811,10.6406162 12.3058808,10.8281165 11.8449428,11.4062421 C11.7824427,11.4843672 11.6886926,11.5312423 11.602755,11.5312423 C11.5324424,11.5312423 11.4699423,11.5078048 11.4074423,11.4687422 L10.1261907,10.4921785 C9.99337808,10.3906159 9.96212804,10.2187407 10.0480656,10.0781156 C10.8918167,8.67967639 12.0793181,7.99998808 13.67307,7.99998808 C15.344947,7.99998808 17.2199492,9.33592717 17.2199492,11.1249918 Z" id="Icon" fill="#FFFFFF"></path>
    </g>
</svg>