<?xml version="1.0" encoding="UTF-8"?>
<svg width="27px" height="27px" viewBox="0 0 27 27" version="1.1" xmlns="http://www.w3.org/2000/svg" xmlns:xlink="http://www.w3.org/1999/xlink">
    <!-- Generator: Sketch 51.3 (57544) - http://www.bohemiancoding.com/sketch -->
    <title>Icon/left-nav-Risk</title>
    <desc>Created with Sketch.</desc>
    <defs></defs>
    <g id="Icon/left-nav-Risk" stroke="none" stroke-width="1" fill="none" fill-rule="evenodd" fill-opacity="0.8">
        <path d="M21.9253281,20.15 L14.5028281,6.29 C14.3994948,6.11083333 14.2078281,6 13.9994948,6 C13.7903281,6 13.5986615,6.11083333 13.4961615,6.29 L6.07449479,20.15 C5.97366146,20.3258333 5.97532812,20.5425 6.07866146,20.7166667 C6.18282812,20.8925 6.37199479,21 6.57699479,21 L21.4219948,21 C21.6261615,21 21.8169948,20.8925 21.9203281,20.7166667 C22.0236615,20.5425 22.0253281,20.3258333 21.9253281,20.15 Z M14.8328281,19.3333333 L13.1661615,19.3333333 L13.1661615,17.6666667 L14.8328281,17.6666667 L14.8328281,19.3333333 Z M14.8328281,16.4166667 L13.1661615,16.4166667 L13.1661615,11 L14.8328281,11 L14.8328281,16.4166667 Z" id="Shape" fill="#FFFFFF"></path>
    </g>
</svg>