<?xml version="1.0" encoding="UTF-8"?>
<svg width="27px" height="27px" viewBox="0 0 27 27" version="1.1" xmlns="http://www.w3.org/2000/svg" xmlns:xlink="http://www.w3.org/1999/xlink">
    <!-- Generator: Sketch 51.3 (57544) - http://www.bohemiancoding.com/sketch -->
    <title>Icon/left-nav-Cohorts</title>
    <desc>Created with Sketch.</desc>
    <defs></defs>
    <g id="Icon/left-nav-Cohorts" stroke="none" stroke-width="1" fill="none" fill-rule="evenodd" fill-opacity="0.8">
        <g id="Group" transform="translate(5.000000, 6.000000)" fill="#FFFFFF">
            <path d="M16.7082811,8.00354803 C16.7082811,8.00354803 16.7045056,8.00354803 16.7082811,8.00354803 L9.53861422,0.614765284 C9.53861422,0.614765284 9.53861422,0.614765284 9.53861422,0.614765284 L9.48575727,0.560635007 C9.48575727,0.560635007 9.46687979,0.560635007 9.46687979,0.560635007 C9.18371759,0.282250728 8.85902494,0.13919214 8.44372038,0.131459243 L5.04954948,0.00386644833 L4.90230514,0 C4.52098004,0.00386644833 4.14720594,0.158524381 3.85649275,0.456240902 L2.83333333,1.50791485 C3.11272004,1.25272926 3.46006567,1.12127001 3.81496229,1.11740357 L3.95843114,1.12127001 L7.34882654,1.24886281 C7.7641311,1.25659571 8.09259925,1.39965429 8.37576145,1.67803857 C8.37576145,1.67803857 8.39086343,1.67803857 8.39463893,1.67803857 L8.44749587,1.73216885 C8.44749587,1.73216885 8.44749587,1.73216885 8.44749587,1.73216885 L15.6133873,9.1209516 C15.6133873,9.1209516 15.6133873,9.1209516 15.6133873,9.1209516 C15.9909369,9.53852802 16.0173653,10.21129 15.6133873,10.625 L16.7082811,9.50759643 C17.1084837,9.09388646 17.0858307,8.42112445 16.7082811,8.00354803 Z" id="Shape"></path>
            <path d="M15.2652996,9.39228787 C15.2652996,9.39228787 15.2768642,9.39228787 15.2768642,9.39228787 L7.96416892,2.02928685 C7.96416892,2.02928685 7.96416892,2.02928685 7.96416892,2.02928685 L7.91405556,1.97534545 C7.91405556,1.97534545 7.90249094,1.97534545 7.90249094,1.97534545 C7.61337541,1.69793254 7.28956603,1.55537312 6.86552993,1.54766721 L3.39228879,1.42051962 L3.23809385,1.41666667 C2.88344547,1.42051962 2.53650685,1.54766721 2.2512462,1.79425646 C2.23968158,1.80581533 2.22426208,1.81737421 2.21269746,1.82893308 C2.19727797,1.84434491 2.18185847,1.85975673 2.16643898,1.87516856 L0.458729962,3.58973447 C0.146485198,3.901824 0,4.31794337 0,4.72635682 C0,4.72635682 0,4.72635682 0,4.73020978 L0.00385487363,4.87662215 L0.231292418,8.26337144 C0.231292418,8.2672244 0.231292418,8.2672244 0.231292418,8.27107736 L0.231292418,8.33657763 C0.231292418,8.33657763 0.231292418,8.33657763 0.231292418,8.33657763 C0.269841154,8.64096124 0.39319711,8.93763894 0.601360286,9.18422819 L0.797958841,9.37302309 L7.97958841,16.6319943 L8.08752487,16.7398771 C8.49999635,17.102055 9.13219562,17.0866432 9.52539273,16.6897886 L10.0303812,16.1811983 C10.0496555,16.1657865 10.065075,16.1503746 10.0843494,16.1311098 L11.1213104,15.0908114 C11.1136007,15.0946644 11.1097458,15.0985173 11.102036,15.1062233 L15.2768642,10.8949411 C15.6854808,10.4826747 15.6893357,9.80840724 15.2652996,9.39228787 Z M3.02993067,3.88255921 C3.28435233,3.72844093 3.5811776,3.63982292 3.90113211,3.63982292 C4.82244691,3.63982292 5.57414727,4.38729659 5.57414727,5.3120063 C5.57414727,5.63180174 5.48548517,5.92847944 5.33129023,6.18277461 C5.03831983,6.66439424 4.51020214,6.98418968 3.90498699,6.98418968 C2.98367219,6.98418968 2.23197183,6.236716 2.23197183,5.3120063 C2.22811696,4.70323908 2.54807147,4.17538395 3.02993067,3.88255921 Z" id="Shape"></path>
        </g>
    </g>
</svg>