<?xml version="1.0" encoding="UTF-8"?>
<svg width="27px" height="27px" viewBox="0 0 27 27" version="1.1" xmlns="http://www.w3.org/2000/svg" xmlns:xlink="http://www.w3.org/1999/xlink">
    <!-- Generator: Sketch 51.3 (57544) - http://www.bohemiancoding.com/sketch -->
    <title>Icon/left-nav-Plans</title>
    <desc>Created with Sketch.</desc>
    <defs></defs>
    <g id="Icon/left-nav-Plans" stroke="none" stroke-width="1" fill="none" fill-rule="evenodd" fill-opacity="0.8">
        <path d="M14.68,17.556 C14.68,16.105 15.78,15.302 17.574,14.114 C19.768,12.658 22.5,10.849 22.5,6.554 C22.5,6.167 22.183,5.855 21.791,5.855 L18.361,5.855 C17.877,4.959 16.432,4 13.5,4 C10.566,4 9.123,4.959 8.638,5.855 L5.207,5.855 C4.816,5.855 4.5,6.168 4.5,6.554 C4.5,10.849 7.23,12.658 9.426,14.113 C11.22,15.301 12.32,16.104 12.32,17.555 L12.32,18.866 C10.436,19.075 9.051,19.772 9.051,20.602 C9.051,21.596 11.043,22.401 13.5,22.401 C15.957,22.401 17.949,21.596 17.949,20.602 C17.949,19.772 16.564,19.075 14.68,18.866 L14.68,17.556 L14.68,17.556 Z M17.457,12.5 C18.023,11.301 18.473,9.674 18.545,7.254 L21.055,7.254 C20.815,9.955 19.193,11.318 17.457,12.5 L17.457,12.5 Z M13.5,5.226 C16.232,5.224 17.299,6.341 17.298,6.755 C17.298,7.173 16.232,8.288 13.5,8.29 C10.768,8.289 9.701,7.174 9.701,6.756 C9.7,6.342 10.768,5.224 13.5,5.226 L13.5,5.226 Z M5.945,7.254 L8.454,7.254 C8.527,9.674 8.975,11.301 9.543,12.5 C7.807,11.318 6.184,9.955 5.945,7.254 L5.945,7.254 Z" id="Shape" fill="#FFFFFF"></path>
    </g>
</svg>