<?xml version="1.0" encoding="UTF-8"?>
<svg width="27px" height="27px" viewBox="0 0 27 27" version="1.1" xmlns="http://www.w3.org/2000/svg" xmlns:xlink="http://www.w3.org/1999/xlink">
    <!-- Generator: Sketch 51.3 (57544) - http://www.bohemiancoding.com/sketch -->
    <title>Icon/left-nav-Assessments</title>
    <desc>Created with Sketch.</desc>
    <defs></defs>
    <g id="Icon/left-nav-Assessments" stroke="none" stroke-width="1" fill="none" fill-rule="evenodd" opacity="0.8">
        <path d="M10.8359409,19 L11.5468792,18.2890617 L9.71093954,16.453122 L9.00000119,17.1640603 L9.00000119,17.9999988 L10.0000024,17.9999988 L10.0000024,19 L10.8359409,19 Z M14.9218833,11.7499914 C14.9218833,11.6484287 14.8515707,11.5781162 14.750008,11.5781162 C14.703133,11.5781162 14.6562579,11.5937412 14.6171954,11.6328037 L10.3828153,15.8671838 C10.3437528,15.9062463 10.3281278,15.9531214 10.3281278,15.9999964 C10.3281278,16.101559 10.3984404,16.1718716 10.500003,16.1718716 C10.546878,16.1718716 10.5937531,16.1562466 10.6328156,16.1171841 L14.8671957,11.882804 C14.9062582,11.8437415 14.9218833,11.7968664 14.9218833,11.7499914 Z M14.5000077,10.2499896 L17.7500116,13.4999934 L11.2500039,20.0000012 L8,20.0000012 L8,16.7499973 L14.5000077,10.2499896 Z M19.8359516,10.9999905 C19.8359516,11.2656158 19.7265765,11.5234286 19.5468888,11.7031163 L18.2500122,12.9999928 L15.0000083,9.74998897 L16.2968849,8.46092494 C16.4765726,8.27342471 16.7343854,8.16404958 17.0000107,8.16404958 C17.265636,8.16404958 17.5234489,8.27342471 17.7109491,8.46092494 L19.5468888,10.2890521 C19.7265765,10.4765523 19.8359516,10.7343651 19.8359516,10.9999905 Z" id="Icon" fill="#FFFFFF"></path>
    </g>
</svg>