<?xml version="1.0" encoding="UTF-8"?>
<svg width="27px" height="27px" viewBox="0 0 27 27" version="1.1" xmlns="http://www.w3.org/2000/svg" xmlns:xlink="http://www.w3.org/1999/xlink">
    <!-- Generator: Sketch 51.3 (57544) - http://www.bohemiancoding.com/sketch -->
    <title>Icon/left-nav-Data Load</title>
    <desc>Created with Sketch.</desc>
    <defs></defs>
    <g id="Icon/left-nav-Data-Load" stroke="none" stroke-width="1" fill="none" fill-rule="evenodd" fill-opacity="0.8">
        <path d="M19.5265625,12.1401786 C19.5265625,12.0892857 19.5350446,12.0383929 19.5350446,11.9875 C19.5350446,9.23080357 17.3381696,7 14.628125,7 C12.6729911,7 10.9935268,8.16205357 10.2046875,9.84151786 C9.86116071,9.66763393 9.47522321,9.56584821 9.06808036,9.56584821 C7.81696429,9.56584821 6.77366071,10.4946429 6.57433036,11.7075893 C5.07299107,12.225 4,13.6627232 4,15.3549107 C4,17.4839286 5.70066964,19.2142857 7.79575893,19.2142857 L12.1428571,19.2142857 L12.1428571,15.8214286 L10.0986607,15.8214286 L13.5,12.2716518 L16.9013393,15.8171875 L14.8571429,15.8171875 L14.8571429,19.2100446 L19.5350446,19.2100446 C21.4520089,19.2100446 23,17.6196429 23,15.6729911 C23,13.7263393 21.4435268,12.1444196 19.5265625,12.1401786 Z" id="Shape" fill="#FFFFFF"></path>
    </g>
</svg>