<?xml version="1.0" encoding="UTF-8"?>
<svg width="27px" height="27px" viewBox="0 0 27 27" version="1.1" xmlns="http://www.w3.org/2000/svg" xmlns:xlink="http://www.w3.org/1999/xlink">
    <!-- Generator: Sketch 51.3 (57544) - http://www.bohemiancoding.com/sketch -->
    <title>Icon/left-nav-Connect</title>
    <desc>Created with Sketch.</desc>
    <defs></defs>
    <g id="Icon/left-nav-Connect" stroke="none" stroke-width="1" fill="none" fill-rule="evenodd" fill-opacity="0.8">
        <path d="M17.5000113,13.9999952 C18.8828255,13.9999952 20.0000143,15.1171841 20.0000143,16.4999982 C20.0000143,17.8828124 18.8828255,19.0000012 17.5000113,19.0000012 C16.1171972,19.0000012 15.0000083,17.8828124 15.0000083,16.4999982 C15.0000083,16.4140606 15.0078209,16.3203105 15.0156334,16.2343729 L12.20313,14.8281212 C11.757817,15.2421842 11.1562538,15.499997 10.500003,15.499997 C9.11718883,15.499997 8,14.3828082 8,12.999994 C8,11.6171799 9.11718883,10.4999911 10.500003,10.4999911 C11.1562538,10.4999911 11.757817,10.7578039 12.20313,11.1718669 L15.0156334,9.76561518 C15.0078209,9.67967758 15.0000083,9.58592747 15.0000083,9.49998987 C15.0000083,8.11717572 16.1171972,6.99998689 17.5000113,6.99998689 C18.8828255,6.99998689 20.0000143,8.11717572 20.0000143,9.49998987 C20.0000143,10.882804 18.8828255,11.9999928 17.5000113,11.9999928 C16.8437605,11.9999928 16.2421973,11.74218 15.7968843,11.328117 L12.9843809,12.7343687 C12.9921935,12.8203063 13.000006,12.9140564 13.000006,12.999994 C13.000006,13.0859316 12.9921935,13.1796818 12.9843809,13.2656194 L15.7968843,14.671871 C16.2421973,14.257808 16.8437605,13.9999952 17.5000113,13.9999952 Z" id="Icon" fill="#FFFFFF"></path>
    </g>
</svg>