<?xml version="1.0" encoding="UTF-8"?>
<svg width="27px" height="27px" viewBox="0 0 27 27" version="1.1" xmlns="http://www.w3.org/2000/svg" xmlns:xlink="http://www.w3.org/1999/xlink">
    <!-- Generator: Sketch 51.3 (57544) - http://www.bohemiancoding.com/sketch -->
    <title>Icon/left-nav-Reports</title>
    <desc>Created with Sketch.</desc>
    <defs></defs>
    <g id="Icon/left-nav-Reports" stroke="none" stroke-width="1" fill="none" fill-rule="evenodd" fill-opacity="0.8">
        <path d="M20.5606563,8.06065625 L18.9393437,6.43934375 C18.6580408,6.15803871 18.2765114,6.00000208 17.8786875,6 L12.5,6 C11.6715625,6 11,6.6715625 11,7.5 L11,9 L8.5,9 C7.6715625,9 7,9.6715625 7,10.5 L7,20.5 C7,21.3284375 7.6715625,22 8.5,22 L15.5,22 C16.3284375,22 17,21.3284375 17,20.5 L17,19 L19.5,19 C20.3284375,19 21,18.3284375 21,17.5 L21,9.1213125 C20.9999979,8.72348856 20.8419613,8.34195921 20.5606563,8.06065625 Z M18,7.01534375 C18.0879172,7.03703602 18.168223,7.08237085 18.2322188,7.1464375 L19.8535312,8.76778125 C19.9175915,8.83178181 19.9629253,8.91208578 19.984625,9 L18,9 L18,7.01534375 Z M16,20.5 C16,20.7756875 15.7756875,21 15.5,21 L8.5,21 C8.2243125,21 8,20.7756875 8,20.5 L8,10.5 C8,10.2243125 8.2243125,10 8.5,10 L11,10 L11,17.5 C11,18.3284375 11.6715625,19 12.5,19 L16,19 L16,20.5 Z M20,17.5 C20,17.7756875 19.7756875,18 19.5,18 L12.5,18 C12.2243125,18 12,17.7756875 12,17.5 L12,7.5 C12,7.2243125 12.2243125,7 12.5,7 L17,7 L17,9.25 C17,9.6625 17.3375,10 17.75,10 L20,10 L20,17.5 Z" id="Shape" fill="#FFFFFF"></path>
    </g>
</svg>