<?xml version="1.0" encoding="UTF-8"?>
<svg width="27px" height="27px" viewBox="0 0 27 27" version="1.1" xmlns="http://www.w3.org/2000/svg" xmlns:xlink="http://www.w3.org/1999/xlink">
    <!-- Generator: Sketch 51.3 (57544) - http://www.bohemiancoding.com/sketch -->
    <title>Icon/left-nav-People</title>
    <desc>Created with Sketch.</desc>
    <defs></defs>
    <g id="Icon/left-nav-People" stroke="none" stroke-width="1" fill="none" fill-rule="evenodd" fill-opacity="0.8">
        <path d="M16.219875,13.507 C16.596075,13.01985 16.8,12.425625 16.8,11.8 C16.8,10.253625 15.548925,9 14,9 C12.453675,9 11.2,10.251025 11.2,11.8 C11.2,12.425625 11.403925,13.01985 11.780125,13.507 C11.456875,13.599375 10,14.1512 10,15.825925 L10,17.34285 C10,18.03605 10.56395,18.6 11.25715,18.6 L16.742875,18.6 C17.43605,18.6 18,18.03605 18,17.34285 L18,15.825925 C18,14.1513 16.54415,13.59965 16.219875,13.507 Z M14,9.8 C15.104575,9.8 16,10.695425 16,11.8 C16,12.904575 15.104575,13.8 14,13.8 C12.895425,13.8 12,12.904575 12,11.8 C12,10.695425 12.895425,9.8 14,9.8 Z M17.2,17.34285 C17.2,17.595325 16.995325,17.8 16.74285,17.8 L11.25715,17.8 C11.004675,17.8 10.8,17.595325 10.8,17.34285 L10.8,15.825925 C10.8,15.11155 11.273575,14.483725 11.96045,14.287475 L12.465775,14.1431 C12.9177,14.44035 13.44655,14.6 14,14.6 C14.55345,14.6 15.0823,14.44035 15.534225,14.143125 L16.03955,14.2875 C16.726425,14.48375 17.2,15.11155 17.2,15.825925 L17.2,17.34285 Z M9.6,17.34285 L9.6,17 L7.14285,17 C6.9535,17 6.8,16.8465 6.8,16.65715 L6.8,15.51945 C6.8,14.983675 7.155175,14.5128 7.670325,14.365625 L7.9927,14.273525 C8.3476,14.480925 8.760125,14.6 9.2,14.6 C9.44806231,14.6001325 9.69463256,14.561638 9.93085,14.4859 C10.075875,14.222225 10.26735,13.9832 10.50345,13.773825 C10.735925,13.56765 10.976325,13.42025 11.1809,13.31765 C10.9305,12.855225 10.8,12.338925 10.8,11.8 C10.8,11.39465 10.874825,11.00095 11.0177,10.63455 C10.57725,10.12385 9.92575,9.8 9.2,9.8 C7.876625,9.8 6.8,10.876625 6.8,12.2 C6.8,12.7444 6.982325,13.24695 7.28895,13.650075 C6.641925,13.8949 6,14.560575 6,15.51945 L6,16.65715 C6,17.287325 6.512675,17.8 7.14285,17.8 L9.664625,17.8 C9.62179012,17.6513931 9.60003605,17.4975072 9.6,17.34285 Z M9.2,10.6 C10.08365,10.6 10.8,11.31635 10.8,12.2 C10.8,13.08365 10.08365,13.8 9.2,13.8 C8.31635,13.8 7.6,13.08365 7.6,12.2 C7.6,11.31635 8.31635,10.6 9.2,10.6 Z M20.71105,13.650075 C21.017675,13.24695 21.2,12.7444 21.2,12.2 C21.2,10.876625 20.123375,9.8 18.8,9.8 C18.074225,9.8 17.422725,10.123875 16.98225,10.634625 C17.12515,11.001025 17.2,11.3947 17.2,11.8 C17.2,12.338925 17.069525,12.855175 16.819125,13.3176 C17.023875,13.42025 17.264425,13.5677 17.497,13.774 C17.732975,13.983325 17.92435,14.222325 18.0693,14.48595 C18.3054714,14.5616593 18.5519903,14.6001367 18.8,14.6 C19.239875,14.6 19.6524,14.480925 20.0073,14.2735 L20.329675,14.3656 C20.844825,14.5128 21.2,14.983675 21.2,15.51945 L21.2,16.65715 C21.2,16.8465 21.0465,17 20.85715,17 L18.4,17 L18.4,17.34285 C18.4,17.501425 18.37715,17.654675 18.335375,17.8 L20.85715,17.8 C21.487325,17.8 22,17.287325 22,16.65715 L22,15.51945 C22,14.560225 21.357775,13.894775 20.71105,13.650075 Z M18.8,13.8 C17.91635,13.8 17.2,13.08365 17.2,12.2 C17.2,11.31635 17.91635,10.6 18.8,10.6 C19.68365,10.6 20.4,11.31635 20.4,12.2 C20.4,13.08365 19.68365,13.8 18.8,13.8 Z" id="Shape" fill="#FFFFFF"></path>
    </g>
</svg>