<?xml version="1.0" encoding="UTF-8"?>
<svg width="27px" height="27px" viewBox="0 0 27 27" version="1.1" xmlns="http://www.w3.org/2000/svg" xmlns:xlink="http://www.w3.org/1999/xlink">
    <!-- Generator: Sketch 51.3 (57544) - http://www.bohemiancoding.com/sketch -->
    <title>Icon/left-nav-Financial</title>
    <desc>Created with Sketch.</desc>
    <defs></defs>
    <g id="Icon/left-nav-Financial" stroke="none" stroke-width="1" fill="none" fill-rule="evenodd" fill-opacity="0.8">
        <path d="M17.3991426,5.35070496 L6.35020463,16.4012429 C5.8829988,16.8684487 5.8829988,17.6316583 6.35180465,18.1004641 L8.89983646,20.650096 C9.36704229,21.1173018 10.1326518,21.1189018 10.5990577,20.651696 L21.6495956,9.60115802 C22.1168015,9.13315218 22.1168015,8.36834263 21.6495956,7.9011368 L19.1007638,5.35070496 C18.6311579,4.8818991 17.8671484,4.88429913 17.3991426,5.35070496 Z M9.14303949,17.2500535 L8.53583191,17.8572611 L7.01901298,16.3396421 L7.62622056,15.7324346 L9.14303949,17.2500535 Z M11.5718698,17.2500535 L10.9646622,17.8572611 L8.23262813,15.125227 L8.83983571,14.5172194 L11.5718698,17.2500535 Z M11.5718698,14.8212232 L10.9646622,15.4284308 L9.44624328,13.9116118 L10.0542509,13.3036042 L11.5718698,14.8212232 Z M12.786285,13.606808 L12.1790774,14.2140156 L10.6622585,12.6971967 L11.269466,12.0891891 L12.786285,13.606808 Z M15.2143153,13.606808 L14.6071077,14.2140156 L11.8758736,11.4827815 L12.4830812,10.8755739 L15.2143153,13.606808 Z M15.2143153,11.1787777 L14.6071077,11.7859853 L13.0902888,10.2691664 L13.6974964,9.66195878 L15.2143153,11.1787777 Z M16.4287304,9.96516256 L15.8215229,10.5723701 L14.3039039,9.0547512 L14.9111115,8.44754362 L16.4287304,9.96516256 Z M18.8575608,9.96516256 L18.2495532,10.5723701 L15.5183191,7.84033604 L16.1255267,7.23232845 L18.8575608,9.96516256 Z M18.8567608,7.53713225 L18.2495532,8.14433983 L16.7327342,6.62592088 L17.3399418,6.0195133 L18.8567608,7.53713225 Z" id="Shape" fill="#FFFFFF"></path>
    </g>
</svg>