<?xml version="1.0" encoding="UTF-8"?>
<svg width="27px" height="27px" viewBox="0 0 27 27" version="1.1" xmlns="http://www.w3.org/2000/svg" xmlns:xlink="http://www.w3.org/1999/xlink">
    <!-- Generator: Sketch 51.3 (57544) - http://www.bohemiancoding.com/sketch -->
    <title>Icon/left-nav-Assignments</title>
    <desc>Created with Sketch.</desc>
    <defs></defs>
    <g id="Icon/left-nav-Assignments" stroke="none" stroke-width="1" fill="none" fill-rule="evenodd" fill-opacity="0.8">
        <path d="M13.0000072,20.0000012 L20.0000155,20.0000012 L20.0000155,14.9999952 L16.7500116,14.9999952 C16.3359486,14.9999952 16.0000107,14.6640573 16.0000107,14.2499943 L16.0000107,10.9999905 L13.0000072,10.9999905 L13.0000072,20.0000012 Z M15.0000095,8.74998778 L15.0000095,8.24998719 C15.0000095,8.11717453 14.8828219,7.99998689 14.7500092,7.99998689 L9.25000268,7.99998689 C9.11719002,7.99998689 9.00000238,8.11717453 9.00000238,8.24998719 L9.00000238,8.74998778 C9.00000238,8.88280044 9.11719002,8.99998808 9.25000268,8.99998808 L14.7500092,8.99998808 C14.8828219,8.99998808 15.0000095,8.88280044 15.0000095,8.74998778 Z M17.0000119,13.999994 L19.3359522,13.999994 L17.0000119,11.6640538 L17.0000119,13.999994 Z M21.0000167,14.9999952 L21.0000167,20.2500015 C21.0000167,20.6640645 20.6640788,21.0000024 20.2500158,21.0000024 L12.7500069,21.0000024 C12.3359439,21.0000024 12.000006,20.6640645 12.000006,20.2500015 L12.000006,19 L7.75000089,19 C7.3359379,19 7,18.6640621 7,18.2499991 L7,7.74998659 C7,7.3359236 7.3359379,6.99998569 7.75000089,6.99998569 L16.250011,6.99998569 C16.664074,6.99998569 17.0000119,7.3359236 17.0000119,7.74998659 L17.0000119,10.3124896 C17.1015745,10.3749897 17.1953247,10.4453023 17.2812623,10.5312399 L20.4687661,13.7187437 C20.7656414,14.0156191 21.0000167,14.5859322 21.0000167,14.9999952 Z" id="Icon" fill="#FFFFFF"></path>
    </g>
</svg>