<?xml version="1.0" encoding="UTF-8"?>
<svg width="27px" height="27px" viewBox="0 0 27 27" version="1.1" xmlns="http://www.w3.org/2000/svg" xmlns:xlink="http://www.w3.org/1999/xlink">
    <!-- Generator: Sketch 51.3 (57544) - http://www.bohemiancoding.com/sketch -->
    <title>Icon/left-nav-Certificates</title>
    <desc>Created with Sketch.</desc>
    <defs></defs>
    <g id="Icon/left-nav-Certificates" stroke="none" stroke-width="1" fill="none" fill-rule="evenodd" fill-opacity="0.8">
        <path d="M18.8593915,12.5312435 L19.0000167,14.9999964 C19.0625168,16.1015602 16.7578265,16.9999988 14.0000107,16.9999988 C11.2421949,16.9999988 8.93750469,16.1015602 9.00000477,14.9999964 L9.14062994,12.5312435 L13.6250103,13.9453077 C13.7500104,13.9843702 13.8750106,13.9999952 14.0000107,13.9999952 C14.1250109,13.9999952 14.250011,13.9843702 14.3750112,13.9453077 L18.8593915,12.5312435 Z M23.0000215,9.99999046 C23.0000215,10.1093656 22.9297089,10.2031157 22.8281463,10.2421783 L14.0781358,12.9921815 C14.0468858,12.999994 14.0234483,12.999994 14.0000107,12.999994 C13.9765732,12.999994 13.9531357,12.999994 13.9218856,12.9921815 L8.82812956,11.3828046 C8.38281653,11.7343675 8.07031616,12.5937436 8.00781609,13.6484323 C8.30469144,13.8203075 8.50000417,14.1328079 8.50000417,14.4999958 C8.50000417,14.8515587 8.32031646,15.1562466 8.04687863,15.3359343 L8.50000417,18.7187509 C8.50781668,18.7890634 8.48437915,18.859376 8.4375041,18.9140636 C8.39062904,18.9687512 8.32031646,19.0000012 8.25000387,19.0000012 L6.75000209,19.0000012 C6.6796895,19.0000012 6.60937692,18.9687512 6.56250186,18.9140636 C6.51562681,18.859376 6.49218928,18.7890634 6.50000179,18.7187509 L6.95312733,15.3359343 C6.6796895,15.1562466 6.50000179,14.8515587 6.50000179,14.4999958 C6.50000179,14.1249954 6.71093954,13.8046825 7.00781489,13.6328073 C7.05468995,12.7187437 7.28906523,11.7343675 7.77344081,11.0546792 L5.1718752,10.2421783 C5.07031258,10.2031157 5,10.1093656 5,9.99999046 C5,9.89061533 5.07031258,9.79686522 5.1718752,9.75780267 L13.9218856,7.0077994 C13.9531357,6.99998689 13.9765732,6.99998689 14.0000107,6.99998689 C14.0234483,6.99998689 14.0468858,6.99998689 14.0781358,7.0077994 L22.8281463,9.75780267 C22.9297089,9.79686522 23.0000215,9.89061533 23.0000215,9.99999046 Z" id="Icon" fill="#FFFFFF"></path>
    </g>
</svg>