<?xml version="1.0" encoding="UTF-8"?>
<svg width="27px" height="27px" viewBox="0 0 27 27" version="1.1" xmlns="http://www.w3.org/2000/svg" xmlns:xlink="http://www.w3.org/1999/xlink">
    <!-- Generator: Sketch 51.3 (57544) - http://www.bohemiancoding.com/sketch -->
    <title>Icon/left-nav-Analytics</title>
    <desc>Created with Sketch.</desc>
    <defs></defs>
    <g id="Icon/left-nav-Analytics" stroke="none" stroke-width="1" fill="none" fill-rule="evenodd" opacity="0.8">
        <path d="M22.0000191,19 L22.0000191,20.0000012 L6,20.0000012 L6,7.99998689 L7.00000119,7.99998689 L7.00000119,19 L22.0000191,19 Z M21.0000179,9.24998838 L21.0000179,12.6484299 C21.0000179,12.8671802 20.7343926,12.9843678 20.5703299,12.8203051 L19.6250162,11.8749915 L14.6796978,16.8203099 C14.5781352,16.9218725 14.421885,16.9218725 14.3203224,16.8203099 L12.5000077,14.9999952 L9.25000387,18.2499991 L7.75000209,16.7499973 L12.32032,12.1796794 C12.4218827,12.0781167 12.5781328,12.0781167 12.6796955,12.1796794 L14.5000101,13.999994 L18.1250145,10.3749897 L17.1797008,9.42967609 C17.0156381,9.2656134 17.1328258,8.99998808 17.351576,8.99998808 L20.7500176,8.99998808 C20.8906428,8.99998808 21.0000179,9.10936321 21.0000179,9.24998838 Z" id="Icon" fill="#FFFFFF"></path>
    </g>
</svg>