<?xml version="1.0" encoding="UTF-8"?>
<svg width="12px" height="12px" viewBox="0 0 12 12" version="1.1" xmlns="http://www.w3.org/2000/svg" xmlns:xlink="http://www.w3.org/1999/xlink">
    <!-- Generator: Sketch 51.3 (57544) - http://www.bohemiancoding.com/sketch -->
    <title>Icon\nav-close</title>
    <desc>Created with Sketch.</desc>
    <defs></defs>
    <g id="Icon\nav-close" stroke="none" stroke-width="1" fill="none" fill-rule="evenodd">
        <path d="M11.5509813,11.5941541 C10.9522898,12.135282 9.98212861,12.135282 9.38471358,11.5941541 L6.00063826,8.09816836 L2.61656295,11.5930003 C2.01787139,12.1341282 1.04771023,12.1341282 0.450295197,11.5930003 C-0.148396362,11.0518725 -0.148396362,10.1749916 0.450295197,9.63501755 L3.97095899,6.0005769 L0.449018669,2.36382866 C-0.14967289,1.82270083 -0.14967289,0.946973703 0.449018669,0.405845873 C1.04771023,-0.135281958 2.01659486,-0.135281958 2.61528642,0.405845873 L6.00063826,3.90298543 L9.38471358,0.405845873 C9.98340514,-0.135281958 10.9522898,-0.135281958 11.5509813,0.405845873 C12.1496729,0.946973703 12.1496729,1.82385462 11.5509813,2.36382866 L8.03031754,6.0005769 L11.5509813,9.63501755 C12.1496729,10.1761454 12.1496729,11.0530263 11.5509813,11.5941541 Z" id="Shape" fill="#4C4F51" fill-rule="nonzero"></path>
    </g>
</svg>