<?xml version="1.0" encoding="UTF-8"?>
<svg width="20px" height="20px" viewBox="0 0 20 20" version="1.1" xmlns="http://www.w3.org/2000/svg" xmlns:xlink="http://www.w3.org/1999/xlink">
    <!-- Generator: Sketch 51.3 (57544) - http://www.bohemiancoding.com/sketch -->
    <title>Icon/notification-error</title>
    <desc>Created with Sketch.</desc>
    <defs></defs>
    <g id="Icon/notification-error" stroke="none" stroke-width="1" fill="none" fill-rule="evenodd">
        <path d="M10,0 C4.47580645,0 0,4.47580645 0,10 C0,15.5241935 4.47580645,20 10,20 C15.5241935,20 20,15.5241935 20,10 C20,4.47580645 15.5241935,0 10,0 Z M10,18.7096774 C5.21370968,18.7096774 1.29032258,14.8346774 1.29032258,10 C1.29032258,5.21370968 5.16532258,1.29032258 10,1.29032258 C14.7862903,1.29032258 18.7096774,5.16532258 18.7096774,10 C18.7096774,14.7862903 14.8346774,18.7096774 10,18.7096774 Z M13.8225806,7.20564516 L11.0282258,10 L13.8225806,12.7943548 C14.0120968,12.983871 14.0120968,13.2903226 13.8225806,13.4798387 L13.4798387,13.8225806 C13.2903226,14.0120968 12.983871,14.0120968 12.7943548,13.8225806 L10,11.0282258 L7.20564516,13.8225806 C7.01612903,14.0120968 6.70967742,14.0120968 6.52016129,13.8225806 L6.17741935,13.4798387 C5.98790323,13.2903226 5.98790323,12.983871 6.17741935,12.7943548 L8.97177419,10 L6.17741935,7.20564516 C5.98790323,7.01612903 5.98790323,6.70967742 6.17741935,6.52016129 L6.52016129,6.17741935 C6.70967742,5.98790323 7.01612903,5.98790323 7.20564516,6.17741935 L10,8.97177419 L12.7943548,6.17741935 C12.983871,5.98790323 13.2903226,5.98790323 13.4798387,6.17741935 L13.8225806,6.52016129 C14.0080645,6.70967742 14.0080645,7.01612903 13.8225806,7.20564516 Z" id="Shape" fill="#712B29" fill-rule="nonzero"></path>
    </g>
</svg>