<?xml version="1.0" encoding="UTF-8"?>
<svg width="20px" height="20px" viewBox="0 0 20 20" version="1.1" xmlns="http://www.w3.org/2000/svg" xmlns:xlink="http://www.w3.org/1999/xlink">
    <!-- Generator: Sketch 51.3 (57544) - http://www.bohemiancoding.com/sketch -->
    <title>Icon/notification-success</title>
    <desc>Created with Sketch.</desc>
    <defs></defs>
    <g id="Icon/notification-success" stroke="none" stroke-width="1" fill="none" fill-rule="evenodd">
        <path d="M10,0 C4.4771371,0 0,4.4771371 0,10 C0,15.5228629 4.4771371,20 10,20 C15.5228629,20 20,15.5228629 20,10 C20,4.4771371 15.5228629,0 10,0 Z M10,18.7096774 C5.21516129,18.7096774 1.29032258,14.8364919 1.29032258,10 C1.29032258,5.21520161 5.16350806,1.29032258 10,1.29032258 C14.7848387,1.29032258 18.7096774,5.16350806 18.7096774,10 C18.7096774,14.7847984 14.8364919,18.7096774 10,18.7096774 Z M15.7108871,7.62254032 L8.43346774,14.8415726 C8.24375,15.0297581 7.93737903,15.0285484 7.74919355,14.8388306 L4.28637097,11.3480242 C4.09818548,11.1583065 4.09939516,10.8519355 4.2891129,10.66375 L4.63266129,10.3229839 C4.82237903,10.1347984 5.12875,10.1360081 5.31693548,10.3257258 L8.09822581,13.1294758 L14.6885887,6.59197581 C14.8783065,6.40379032 15.1846774,6.405 15.3728629,6.59471774 L15.713629,6.93826613 C15.9018548,7.12798387 15.9006048,7.43435484 15.7108871,7.62254032 Z" id="Shape" fill="#396739" fill-rule="nonzero"></path>
    </g>
</svg>