<?xml version="1.0" encoding="UTF-8"?>
<svg width="20px" height="20px" viewBox="0 0 20 20" version="1.1" xmlns="http://www.w3.org/2000/svg" xmlns:xlink="http://www.w3.org/1999/xlink">
    <!-- Generator: Sketch 51.3 (57544) - http://www.bohemiancoding.com/sketch -->
    <title>Icon/notification-general</title>
    <desc>Created with Sketch.</desc>
    <defs></defs>
    <g id="Icon/notification-general" stroke="none" stroke-width="1" fill="none" fill-rule="evenodd">
        <g id="info-circle" fill="#0F5777" fill-rule="nonzero">
            <path d="M10,1.29032258 C14.7831048,1.29032258 18.7096774,5.16431452 18.7096774,10 C18.7096774,14.810121 14.8141129,18.7096774 10,18.7096774 C5.19177419,18.7096774 1.29032258,14.8160484 1.29032258,10 C1.29032258,5.19342742 5.18556452,1.29032258 10,1.29032258 Z M10,0 C4.47754032,0 0,4.47915323 0,10 C0,15.5240726 4.47754032,20 10,20 C15.5224597,20 20,15.5240726 20,10 C20,4.47915323 15.5224597,0 10,0 Z M8.5483871,13.8709677 L9.03225806,13.8709677 L9.03225806,9.03225806 L8.5483871,9.03225806 C8.28116935,9.03225806 8.06451613,8.81560484 8.06451613,8.5483871 L8.06451613,8.22580645 C8.06451613,7.95858871 8.28116935,7.74193548 8.5483871,7.74193548 L10.483871,7.74193548 C10.7510887,7.74193548 10.9677419,7.95858871 10.9677419,8.22580645 L10.9677419,13.8709677 L11.4516129,13.8709677 C11.7188306,13.8709677 11.9354839,14.087621 11.9354839,14.3548387 L11.9354839,14.6774194 C11.9354839,14.9446371 11.7188306,15.1612903 11.4516129,15.1612903 L8.5483871,15.1612903 C8.28116935,15.1612903 8.06451613,14.9446371 8.06451613,14.6774194 L8.06451613,14.3548387 C8.06451613,14.087621 8.28116935,13.8709677 8.5483871,13.8709677 Z M10,4.19354839 C9.28737903,4.19354839 8.70967742,4.77125 8.70967742,5.48387097 C8.70967742,6.19649194 9.28737903,6.77419355 10,6.77419355 C10.712621,6.77419355 11.2903226,6.19649194 11.2903226,5.48387097 C11.2903226,4.77125 10.712621,4.19354839 10,4.19354839 Z" id="Shape"></path>
        </g>
    </g>
</svg>